HIERARCHY
ROOT Hips
{
	OFFSET 0.000000 71.427986 0.000000
	CHANNELS 6 Xposition Yposition Zposition Xrotation Yrotation Zrotation
	JOINT Pelvis
	{
		OFFSET 0.000000 0.000000 0.000000
		CHANNELS 3 Xrotation Yrotation Zrotation
		JOINT LeftUpLeg
		{
			OFFSET 6.797100 -2.508499 -1.318700
			CHANNELS 3 Xrotation Yrotation Zrotation
			JOINT LeftLeg
			{
				OFFSET 0.069008 -29.241863 0.690200
				CHANNELS 3 Xrotation Yrotation Zrotation
				JOINT LeftFoot
				{
					OFFSET -0.069008 -29.568123 -0.266800
					CHANNELS 3 Xrotation Yrotation Zrotation
					JOINT LeftToeBase
					{
						OFFSET 3.145500 -8.631000 16.059900
						CHANNELS 3 Xrotation Yrotation Zrotation
						End Site
						{
							OFFSET 0.000000 18.501587 0.000000
						}
					}
				}
			}
			JOINT Left_ShortSleeve
			{
				OFFSET 0.265923 -10.480953 1.153800
				CHANNELS 3 Xrotation Yrotation Zrotation
				End Site
				{
					OFFSET 1.725763 19.823879 0.000000
				}
			}
		}
		JOINT RightUpLeg
		{
			OFFSET -6.797100 -2.508499 -1.318700
			CHANNELS 3 Xrotation Yrotation Zrotation
			JOINT RightLeg
			{
				OFFSET -0.082453 -29.241932 0.688000
				CHANNELS 3 Xrotation Yrotation Zrotation
				JOINT RightFoot
				{
					OFFSET 0.082453 -29.568058 -0.264600
					CHANNELS 3 Xrotation Yrotation Zrotation
					JOINT RightToeBase
					{
						OFFSET -3.115300 -8.682800 16.113400
						CHANNELS 3 Xrotation Yrotation Zrotation
						End Site
						{
							OFFSET 0.000000 18.567114 0.000000
						}
					}
				}
			}
			JOINT Right_ShortSleeve
			{
				OFFSET -0.265923 -10.480953 1.153800
				CHANNELS 3 Xrotation Yrotation Zrotation
				End Site
				{
					OFFSET -1.725766 19.823910 0.000000
				}
			}
		}
	}
	JOINT Spine
	{
		OFFSET 0.000000 13.368103 0.470500
		CHANNELS 3 Xrotation Yrotation Zrotation
		JOINT Spine1
		{
			OFFSET 0.147000 13.837402 0.538800
			CHANNELS 3 Xrotation Yrotation Zrotation
			JOINT Spine2
			{
				OFFSET 0.168000 16.242897 -1.435500
				CHANNELS 3 Xrotation Yrotation Zrotation
				JOINT Neck
				{
					OFFSET 0.217200 18.631500 -1.679100
					CHANNELS 3 Xrotation Yrotation Zrotation
					JOINT Head
					{
						OFFSET 0.000000 6.599396 1.385900
						CHANNELS 3 Xrotation Yrotation Zrotation
						JOINT Hat
						{
							OFFSET -0.532200 27.220596 -10.096100
							CHANNELS 3 Xrotation Yrotation Zrotation
							End Site
							{
								OFFSET 0.000000 22.029861 0.000000
							}
						}
						JOINT HairD
						{
							OFFSET -10.777400 17.437393 -1.325900
							CHANNELS 3 Xrotation Yrotation Zrotation
							JOINT HairD1
							{
								OFFSET -3.290299 -11.051193 1.062200
								CHANNELS 3 Xrotation Yrotation Zrotation
								End Site
								{
									OFFSET 0.000000 11.579437 0.000000
								}
							}
						}
						JOINT HairB
						{
							OFFSET -10.777400 17.437393 1.467900
							CHANNELS 3 Xrotation Yrotation Zrotation
							JOINT HairB1
							{
								OFFSET -1.561200 -12.956299 3.590200
								CHANNELS 3 Xrotation Yrotation Zrotation
								End Site
								{
									OFFSET 0.000000 13.534866 0.000000
								}
							}
						}
						JOINT HairA
						{
							OFFSET 9.713100 17.437393 1.467900
							CHANNELS 3 Xrotation Yrotation Zrotation
							JOINT HairA1
							{
								OFFSET 1.561200 -12.956299 3.590200
								CHANNELS 3 Xrotation Yrotation Zrotation
								End Site
								{
									OFFSET 0.000000 13.534866 0.000000
								}
							}
						}
						JOINT HairC
						{
							OFFSET 9.713100 17.437393 -1.325900
							CHANNELS 3 Xrotation Yrotation Zrotation
							JOINT HairC1
							{
								OFFSET 3.290300 -11.051193 1.062200
								CHANNELS 3 Xrotation Yrotation Zrotation
								End Site
								{
									OFFSET 0.000000 11.579437 0.000000
								}
							}
						}
					}
				}
				JOINT LeftShoulder
				{
					OFFSET 5.101800 15.108002 -2.763700
					CHANNELS 3 Xrotation Yrotation Zrotation
					JOINT LeftArm
					{
						OFFSET 9.825497 2.506317 -1.597400
						CHANNELS 3 Xrotation Yrotation Zrotation
						JOINT LeftForeArm
						{
							OFFSET 21.966244 0.000000 0.000000
							CHANNELS 3 Xrotation Yrotation Zrotation
							JOINT LeftHand
							{
								OFFSET 33.879036 0.000000 0.000000
								CHANNELS 3 Xrotation Yrotation Zrotation
								JOINT LeftHandThumb1
								{
									OFFSET 6.715286 -2.359680 3.363841
									CHANNELS 3 Xrotation Yrotation Zrotation
									JOINT LeftHandThumb2
									{
										OFFSET 2.507072 -1.447464 1.447461
										CHANNELS 3 Xrotation Yrotation Zrotation
										JOINT LeftHandThumb3
										{
											OFFSET 2.898338 -1.673355 1.673357
											CHANNELS 3 Xrotation Yrotation Zrotation
											End Site
											{
												OFFSET -0.295959 3.727692 -0.131651
											}
										}
									}
								}
								JOINT LeftHandIndex1
								{
									OFFSET 14.190811 -0.254547 3.840278
									CHANNELS 3 Xrotation Yrotation Zrotation
									JOINT LeftHandIndex2
									{
										OFFSET 3.551727 0.000000 -0.000000
										CHANNELS 3 Xrotation Yrotation Zrotation
										JOINT LeftHandIndex3
										{
											OFFSET 2.894196 0.000000 0.000000
											CHANNELS 3 Xrotation Yrotation Zrotation
											End Site
											{
												OFFSET -1.000603 2.690872 0.366626
											}
										}
									}
								}
								JOINT LeftHandMiddle1
								{
									OFFSET 13.776489 0.000000 0.000000
									CHANNELS 3 Xrotation Yrotation Zrotation
									JOINT LeftHandMiddle2
									{
										OFFSET 3.438232 0.000000 0.000000
										CHANNELS 3 Xrotation Yrotation Zrotation
										JOINT LeftHandMiddle3
										{
											OFFSET 3.691551 0.000000 0.000000
											CHANNELS 3 Xrotation Yrotation Zrotation
											End Site
											{
												OFFSET -1.082298 3.499527 0.457670
											}
										}
									}
								}
								JOINT LeftHandRing1
								{
									OFFSET 13.966164 -0.268127 -3.067488
									CHANNELS 3 Xrotation Yrotation Zrotation
									JOINT LeftHandRing2
									{
										OFFSET 3.162567 0.000000 0.000000
										CHANNELS 3 Xrotation Yrotation Zrotation
										JOINT LeftHandRing3
										{
											OFFSET 3.324348 0.000000 0.000000
											CHANNELS 3 Xrotation Yrotation Zrotation
											End Site
											{
												OFFSET -0.861900 3.184998 0.405154
											}
										}
									}
								}
								JOINT LeftHandPinky1
								{
									OFFSET 13.131393 -0.168503 -5.746925
									CHANNELS 3 Xrotation Yrotation Zrotation
									JOINT LeftHandPinky2
									{
										OFFSET 2.849182 0.000000 0.000000
										CHANNELS 3 Xrotation Yrotation Zrotation
										JOINT LeftHandPinky3
										{
											OFFSET 2.805038 0.000000 0.000000
											CHANNELS 3 Xrotation Yrotation Zrotation
											End Site
											{
												OFFSET -0.882500 2.642609 0.325652
											}
										}
									}
								}
							}
							JOINT Left_Sleeve
							{
								OFFSET 6.592125 -0.646545 0.805568
								CHANNELS 3 Xrotation Yrotation Zrotation
								End Site
								{
									OFFSET -0.000179 20.275787 -0.000000
								}
							}
						}
					}
				}
				JOINT RightShoulder
				{
					OFFSET -5.731700 15.108002 -2.763700
					CHANNELS 3 Xrotation Yrotation Zrotation
					JOINT RightArm
					{
						OFFSET -9.825497 2.506317 -1.597400
						CHANNELS 3 Xrotation Yrotation Zrotation
						JOINT RightForeArm
						{
							OFFSET -21.966242 0.000000 0.000000
							CHANNELS 3 Xrotation Yrotation Zrotation
							JOINT RightHand
							{
								OFFSET -33.879032 0.000000 0.000000
								CHANNELS 3 Xrotation Yrotation Zrotation
								JOINT RightHandThumb1
								{
									OFFSET -6.715286 -2.359680 3.363841
									CHANNELS 3 Xrotation Yrotation Zrotation
									JOINT RightHandThumb2
									{
										OFFSET -2.507072 -1.447464 1.447461
										CHANNELS 3 Xrotation Yrotation Zrotation
										JOINT RightHandThumb3
										{
											OFFSET -2.898338 -1.673355 1.673357
											CHANNELS 3 Xrotation Yrotation Zrotation
											End Site
											{
												OFFSET 0.295959 3.727692 -0.131651
											}
										}
									}
								}
								JOINT RightHandIndex1
								{
									OFFSET -14.190811 -0.254547 3.840278
									CHANNELS 3 Xrotation Yrotation Zrotation
									JOINT RightHandIndex2
									{
										OFFSET -3.551727 0.000000 -0.000000
										CHANNELS 3 Xrotation Yrotation Zrotation
										JOINT RightHandIndex3
										{
											OFFSET -2.894196 0.000000 0.000000
											CHANNELS 3 Xrotation Yrotation Zrotation
											End Site
											{
												OFFSET 1.000603 2.690872 0.366626
											}
										}
									}
								}
								JOINT RightHandMiddle1
								{
									OFFSET -13.776489 0.000000 0.000000
									CHANNELS 3 Xrotation Yrotation Zrotation
									JOINT RightHandMiddle2
									{
										OFFSET -3.438232 0.000000 0.000000
										CHANNELS 3 Xrotation Yrotation Zrotation
										JOINT RightHandMiddle3
										{
											OFFSET -3.691551 0.000000 0.000000
											CHANNELS 3 Xrotation Yrotation Zrotation
											End Site
											{
												OFFSET 1.082298 3.499527 0.457670
											}
										}
									}
								}
								JOINT RightHandRing1
								{
									OFFSET -13.966164 -0.268127 -3.067488
									CHANNELS 3 Xrotation Yrotation Zrotation
									JOINT RightHandRing2
									{
										OFFSET -3.162567 0.000000 0.000000
										CHANNELS 3 Xrotation Yrotation Zrotation
										JOINT RightHandRing3
										{
											OFFSET -3.324348 0.000000 0.000000
											CHANNELS 3 Xrotation Yrotation Zrotation
											End Site
											{
												OFFSET 0.861900 3.184998 0.405154
											}
										}
									}
								}
								JOINT RightHandPinky1
								{
									OFFSET -13.131393 -0.168503 -5.746925
									CHANNELS 3 Xrotation Yrotation Zrotation
									JOINT RightHandPinky2
									{
										OFFSET -2.849182 0.000000 0.000000
										CHANNELS 3 Xrotation Yrotation Zrotation
										JOINT RightHandPinky3
										{
											OFFSET -2.805038 0.000000 0.000000
											CHANNELS 3 Xrotation Yrotation Zrotation
											End Site
											{
												OFFSET 0.882500 2.642609 0.325652
											}
										}
									}
								}
							}
							JOINT Right_Sleeve
							{
								OFFSET -6.592125 -0.646545 0.805568
								CHANNELS 3 Xrotation Yrotation Zrotation
								End Site
								{
									OFFSET 0.000179 20.275787 -0.000000
								}
							}
						}
					}
				}
				JOINT Bind_Right_JacketString
				{
					OFFSET -3.534800 11.969597 7.200700
					CHANNELS 3 Xrotation Yrotation Zrotation
					JOINT Bind_Right_JacketString1
					{
						OFFSET -0.319900 -6.102600 2.794100
						CHANNELS 3 Xrotation Yrotation Zrotation
						End Site
						{
							OFFSET 0.000000 6.719452 0.000000
						}
					}
				}
				JOINT Bind_Left_JacketString
				{
					OFFSET 2.904800 11.969597 7.200700
					CHANNELS 3 Xrotation Yrotation Zrotation
					JOINT Bind_Left_JacketString1
					{
						OFFSET 0.364800 -5.904503 3.186800
						CHANNELS 3 Xrotation Yrotation Zrotation
						End Site
						{
							OFFSET 0.000000 6.719513 0.000000
						}
					}
				}
				JOINT HairE
				{
					OFFSET 5.915200 17.612701 -11.592200
					CHANNELS 3 Xrotation Yrotation Zrotation
					JOINT HairE1
					{
						OFFSET 0.289200 -7.171898 -1.284500
						CHANNELS 3 Xrotation Yrotation Zrotation
						End Site
						{
							OFFSET 0.000000 7.291756 0.000000
						}
					}
				}
				JOINT HairF
				{
					OFFSET -0.864800 17.612701 -11.592200
					CHANNELS 3 Xrotation Yrotation Zrotation
					JOINT HairF1
					{
						OFFSET 0.000000 -14.087097 -2.127501
						CHANNELS 3 Xrotation Yrotation Zrotation
						End Site
						{
							OFFSET 0.000000 14.246841 0.000000
						}
					}
				}
				JOINT HairG
				{
					OFFSET -8.087700 17.612701 -11.592200
					CHANNELS 3 Xrotation Yrotation Zrotation
					JOINT HairG1
					{
						OFFSET -0.293600 -6.081398 -0.910100
						CHANNELS 3 Xrotation Yrotation Zrotation
						End Site
						{
							OFFSET 0.000000 6.156120 0.000000
						}
					}
				}
			}
		}
	}
	JOINT Pouch
	{
		OFFSET 0.000000 4.394501 10.847300
		CHANNELS 3 Xrotation Yrotation Zrotation
		End Site
		{
			OFFSET 0.000000 21.880577 0.000000
		}
	}
	JOINT Bag
	{
		OFFSET -13.229000 4.813004 -0.593300
		CHANNELS 3 Xrotation Yrotation Zrotation
		End Site
		{
			OFFSET 0.000000 21.880577 0.000000
		}
	}
	JOINT OccupyGuyFacialAnim_Joint
	{
		OFFSET 1.000000 -70.206398 -1.655000
		CHANNELS 3 Xrotation Yrotation Zrotation
		End Site
		{
			OFFSET 0.000000 21.880577 0.000000
		}
	}
}
MOTION
Frames: 5
Frame Time: 0.033333
-0.863798 63.626068 0.767593 3.013710 -58.244575 6.565697 -0.000000 0.000001 -0.000000 -32.626000 11.151143 23.547398 43.775656 -8.035139 -9.925849 -13.046745 -2.694441 -7.239783 -0.000000 -0.000002 -0.000000 -0.000000 -0.000004 -0.000002 -30.694771 -9.745336 -24.744500 48.823326 2.523451 -7.653084 -22.399913 2.490613 19.772872 0.000000 0.000000 -0.000000 0.000000 0.000000 -0.000000 11.191583 0.099423 -2.783152 8.434581 0.027694 -5.592326 8.457034 0.027893 -5.591861 -21.556458 25.063278 12.062495 -0.293487 25.465616 -3.208473 0.000000 -0.000000 -0.000001 0.000000 -0.000000 -0.000001 0.000000 -0.000000 -0.000001 0.000000 -0.000000 -0.000001 0.000000 -0.000000 -0.000001 0.000000 -0.000000 -0.000001 0.000000 -0.000000 -0.000001 0.000000 -0.000000 -0.000001 0.000000 -0.000000 -0.000001 -6.221651 -11.503820 -4.023757 -23.061970 9.568826 -36.639754 0.046239 -43.170019 -0.011108 22.743710 -5.685299 15.979161 -1.064218 -7.954939 8.490086 2.373407 19.986093 -2.038346 -0.000002 -0.000000 -0.000002 13.340860 -1.006695 10.682290 -0.167577 0.303340 -31.105655 0.000001 0.000001 -0.000000 8.495429 -0.329564 -0.915315 0.231494 0.661223 -29.901851 -0.000000 0.000000 -0.000005 6.111742 3.150915 -16.210930 0.047088 0.322433 -30.125485 -0.000001 -0.000000 -0.000000 -5.636047 7.709855 -13.878614 0.224364 0.276547 -46.588396 -0.000000 -0.000001 0.000003 0.000000 0.000001 -0.000004 -5.488234 10.658255 2.466471 -41.473916 -26.755577 30.079057 24.955677 111.862898 -23.308702 -8.702506 12.423049 -9.801945 0.265016 10.061076 -10.888473 1.383792 -17.412818 3.016262 0.000001 0.000000 0.000001 19.443593 11.174450 -13.340194 -0.118668 -0.322698 18.035620 0.000001 -0.000001 0.000000 4.320466 2.436957 -4.811725 0.349126 -0.461257 26.890349 0.000000 0.000002 -0.000000 -7.005627 -10.695158 5.719830 0.111905 -0.089205 26.155885 -0.000001 0.000001 0.000000 -19.433529 -20.238230 5.987879 0.223804 -0.085795 36.844609 0.000002 0.000001 -0.000003 0.000000 -0.000000 0.000000 0.000001 -0.000003 0.000001 0.000002 -0.000000 0.000001 0.000001 -0.000003 0.000001 0.000001 -0.000003 0.000001 0.000001 -0.000003 0.000001 0.000002 -0.000000 0.000001 0.000001 -0.000003 0.000001 0.000001 -0.000003 0.000001 0.000001 -0.000003 0.000001 0.000002 -0.000000 0.000001 -0.000000 0.000001 -0.000000 -0.000000 0.000001 -0.000000 -0.000000 0.000001 -0.000000 
-0.576324 63.923561 2.360956 -1.507317 -58.734771 0.048559 0.000000 -0.000002 -0.000000 -29.797294 7.245298 23.681249 46.468219 -6.421747 -10.148697 -15.711990 -1.160446 -6.880111 0.000000 0.000000 0.000000 0.000003 0.000003 -0.000002 -25.998862 -12.629475 -24.134854 44.219048 3.624668 -7.130782 -20.489178 3.767644 20.690883 -0.000000 0.000000 -0.000000 0.000002 0.000000 -0.000001 12.216966 0.140341 -2.355284 12.634579 -0.377671 -4.699165 8.518710 -0.024869 -4.262281 -26.037118 25.513337 13.802970 -23.473186 34.021435 2.053235 -0.000003 0.000000 -0.000000 -0.000003 0.000000 -0.000000 -0.000003 0.000000 -0.000000 -0.000003 0.000000 -0.000000 -0.000001 0.000000 -0.000000 -0.000003 0.000000 -0.000000 -0.000001 0.000000 -0.000000 -0.000003 0.000000 -0.000000 -0.000003 0.000000 -0.000000 -4.807763 -14.072732 -5.156509 -25.295382 4.630319 -34.355373 8.787960 -43.275840 4.435042 -10.893665 -3.483979 8.796642 -0.595373 -5.179416 9.355226 3.231589 22.510538 -1.072114 -0.000001 -0.000003 0.000001 13.356134 -1.027661 5.372851 -0.161492 0.306820 -36.416475 0.000001 -0.000001 -0.000000 8.427572 -0.253028 -8.127467 0.271104 0.678924 -37.114702 0.000002 0.000002 -0.000001 6.082907 3.186076 -19.148196 0.049122 0.342653 -33.065390 0.000001 0.000003 -0.000000 -5.640206 7.727524 -16.812178 0.236044 0.285574 -49.528379 0.000001 -0.000001 -0.000001 -0.000001 0.000000 -0.000003 -5.405802 11.539732 0.601773 -62.715576 -22.216565 6.291200 22.487875 111.452199 -17.702882 -22.198596 -1.213273 -5.092549 0.649257 6.288658 -12.237534 2.590472 -20.835680 1.669289 -0.000000 0.000000 0.000000 19.378541 11.081428 -6.503739 -0.111516 -0.328609 24.876420 0.000000 0.000002 0.000006 4.292895 2.366734 2.032808 0.363133 -0.484066 33.731087 0.000000 -0.000003 -0.000001 -6.886694 -10.659275 12.566780 0.115276 -0.136609 32.996494 -0.000001 0.000000 0.000000 -19.226921 -20.110669 12.863273 0.248008 -0.110427 43.685282 -0.000001 -0.000001 0.000000 -0.000000 -0.000001 0.000002 0.000002 0.000002 -0.000003 0.000002 0.000002 -0.000003 0.000002 0.000002 -0.000003 0.000002 0.000002 -0.000003 0.000002 0.000002 -0.000003 0.000002 0.000002 -0.000003 0.000002 0.000002 -0.000003 0.000002 0.000002 -0.000003 0.000002 0.000002 -0.000003 0.000002 0.000002 -0.000003 0.000000 -0.000002 -0.000000 0.000000 -0.000002 -0.000000 0.000000 -0.000002 -0.000000 
-1.550333 64.554924 5.191793 -3.414667 -58.779064 -4.257925 0.000000 -0.000002 -0.000000 -26.474937 5.558070 24.003399 47.819261 -5.866335 -10.292655 -19.445282 -0.274894 -5.986607 0.000000 -0.000002 -0.000000 0.000001 0.000000 -0.000002 -18.991075 -16.515736 -23.501849 35.660517 6.976965 -5.984735 -18.050344 2.885825 21.687290 0.000000 0.000000 -0.000000 -0.000001 0.000000 -0.000000 11.544743 0.437678 -0.413853 9.544689 0.356532 -2.024559 6.399711 0.537185 -1.321614 -32.073861 18.550389 12.839183 -28.360761 24.481840 7.428327 -0.000000 0.000000 0.000000 -0.000000 0.000000 0.000000 -0.000000 0.000000 0.000000 -0.000000 0.000000 -0.000000 0.000001 -0.000000 0.000000 -0.000000 0.000000 -0.000000 0.000001 -0.000000 0.000000 -0.000000 0.000000 0.000000 -0.000000 0.000000 0.000000 -5.615770 -15.635727 -11.394876 -23.140095 0.637144 -35.911222 20.263908 -33.100073 11.253559 -30.808965 -5.938237 1.436780 -0.285529 -3.265510 9.902967 3.802258 24.249837 -0.421359 -0.000003 -0.000001 -0.000002 13.377140 -1.042751 1.729751 -0.157153 0.308924 -40.060101 0.000002 0.000000 0.000002 8.386724 -0.192762 -13.075518 0.299403 0.688186 -42.063324 0.000002 -0.000005 0.000002 6.073885 3.211137 -21.164507 0.051892 0.356440 -35.082461 0.000001 -0.000002 -0.000000 -5.634951 7.740308 -18.829933 0.244274 0.291315 -51.545525 0.000001 -0.000002 -0.000001 0.000001 -0.000003 -0.000003 -5.035474 12.538545 -2.902948 -71.093363 -20.261625 -8.877634 23.668182 113.460664 -14.074559 -27.714194 -11.653194 2.096193 0.877575 3.822897 -13.118399 3.348458 -23.088246 0.810809 -0.000001 -0.000001 -0.000001 19.426306 11.103494 -2.032205 -0.106483 -0.332175 29.352666 -0.000001 -0.000001 -0.000005 4.245583 2.313991 6.509632 0.378226 -0.504542 38.207344 -0.000001 -0.000000 0.000001 -6.928298 -10.711763 17.039778 0.120603 -0.167258 37.472662 0.000001 -0.000003 -0.000003 -19.287104 -20.155134 17.329662 0.265406 -0.124985 48.161484 0.000003 0.000000 -0.000001 0.000003 0.000000 -0.000002 -0.000000 -0.000000 0.000001 0.000002 0.000001 -0.000001 -0.000000 -0.000000 -0.000000 -0.000000 -0.000000 -0.000000 -0.000000 -0.000000 0.000001 0.000002 0.000001 -0.000000 -0.000000 -0.000000 -0.000000 -0.000000 -0.000000 -0.000000 -0.000000 -0.000000 0.000001 0.000002 0.000001 -0.000000 0.000000 -0.000002 -0.000000 0.000000 -0.000002 -0.000000 0.000000 -0.000002 -0.000000 
-4.076112 65.569572 9.326113 0.777175 -59.006639 -2.658791 0.000000 -0.000001 -0.000000 -26.485843 4.227374 23.272165 52.452991 -2.042310 -9.604475 -20.784865 -2.137883 -6.050367 -0.000000 -0.000000 0.000000 -0.000003 0.000000 0.000002 -7.914412 -17.906849 -22.879698 18.024360 8.179054 -0.547933 -11.802044 1.462144 22.518676 -0.000000 0.000000 -0.000000 0.000001 0.000001 -0.000000 10.496376 0.879777 1.881053 5.803713 1.187878 1.161813 3.762841 1.195892 2.195268 -39.252441 8.881702 11.065444 -23.463559 12.487926 10.912209 -0.000003 0.000000 0.000001 -0.000003 0.000000 0.000001 -0.000003 0.000000 0.000002 -0.000003 0.000000 0.000001 -0.000001 -0.000003 -0.000002 -0.000003 0.000000 0.000001 -0.000001 -0.000003 -0.000002 -0.000003 0.000000 0.000001 -0.000003 0.000000 0.000001 -9.120031 -10.520569 -21.459066 -16.085070 0.737595 -26.159940 46.050071 -39.105568 22.826216 -38.096517 -4.453090 8.807053 -0.061836 -1.672461 10.436747 4.275505 25.712741 0.118795 -0.000001 -0.000000 0.000001 13.409515 -1.055864 -1.330951 -0.153392 0.310426 -43.121272 0.000001 0.000005 -0.000001 8.356205 -0.137620 -17.232407 0.321872 0.694034 -46.220734 0.000001 0.000002 0.000001 6.064207 3.232626 -22.858574 0.056645 0.367930 -36.777051 -0.000002 0.000003 -0.000000 -5.639970 7.750873 -20.526376 0.251403 0.295953 -53.240129 0.000000 -0.000001 0.000003 -0.000001 -0.000000 0.000002 -4.859275 13.413488 -5.530972 -76.540671 -14.207070 -26.596108 16.356964 114.893563 -2.032101 -41.139049 -16.192415 6.274705 1.026249 2.048210 -13.749600 3.879506 -24.715120 0.202809 -0.000000 0.000000 0.000002 19.496333 11.165796 1.185313 -0.102685 -0.334646 32.574466 -0.000002 0.000004 -0.000001 4.204965 2.274380 9.730909 0.393108 -0.516440 41.429182 0.000002 0.000005 0.000002 -7.008296 -10.794580 20.255083 0.125848 -0.189070 40.694339 0.000000 -0.000000 -0.000001 -19.412584 -20.260668 20.527924 0.278616 -0.134547 51.383148 0.000001 0.000003 0.000001 0.000001 -0.000002 -0.000002 -0.000002 0.000001 0.000000 -0.000000 0.000001 0.000000 -0.000002 0.000001 -0.000000 -0.000002 0.000001 -0.000000 -0.000002 0.000001 0.000000 -0.000000 0.000001 0.000000 -0.000002 0.000001 -0.000000 -0.000002 0.000001 -0.000000 -0.000002 0.000001 0.000000 -0.000000 0.000001 0.000000 0.000000 -0.000001 -0.000000 0.000000 -0.000001 -0.000000 0.000000 -0.000001 -0.000000 
-5.316836 66.262665 12.862186 4.816990 -59.256727 -1.047556 -0.000000 -0.000003 0.000000 -28.592888 2.749364 22.601777 57.399325 -0.828384 -8.860267 -20.200588 -4.321583 -5.257304 0.000001 0.000001 -0.000000 0.000002 -0.000004 -0.000000 -11.592919 -15.970560 -25.154279 22.534042 12.315209 0.038179 -4.302398 2.302847 24.364606 -0.000000 -0.000000 -0.000000 -0.000001 -0.000000 0.000001 9.672513 1.285229 3.428175 3.135191 1.794098 3.427737 1.855060 1.742623 4.674585 -46.261039 2.562517 10.235081 -19.247099 13.616178 11.104885 0.000001 -0.000003 -0.000002 0.000001 -0.000003 -0.000002 0.000001 -0.000003 -0.000002 0.000001 -0.000003 -0.000001 0.000004 -0.000001 0.000000 0.000001 -0.000003 -0.000001 0.000004 -0.000001 0.000000 0.000001 -0.000003 -0.000002 0.000001 -0.000003 -0.000002 -9.223068 -6.816739 -19.381606 -7.524109 1.615616 -25.514371 47.163341 -48.611252 30.271443 -26.556590 -1.647613 13.479713 -0.002149 -0.987860 10.798497 4.488268 26.364175 0.355998 0.000001 0.000001 -0.000001 13.427578 -1.061823 -2.695129 -0.151685 0.310998 -44.485377 -0.000002 0.000002 0.000000 8.343850 -0.111794 -19.084925 0.330695 0.696111 -48.073593 0.000000 0.000002 -0.000001 6.060024 3.242318 -23.613639 0.059371 0.373034 -37.532265 -0.000001 0.000002 0.000000 -5.651758 7.757480 -21.281329 0.254593 0.297938 -53.995333 -0.000001 0.000001 0.000001 -0.000000 0.000001 0.000002 -4.441253 13.632863 -8.873643 -78.308816 -10.020022 -35.308741 18.388213 113.445870 -0.127012 -47.255142 -13.795606 6.830954 1.059345 1.628026 -13.898715 4.005677 -25.100877 0.062094 0.000001 -0.000001 -0.000001 19.516738 11.186626 1.945821 -0.101807 -0.335409 33.336094 -0.000002 0.000001 -0.000001 4.196291 2.266914 10.492414 0.396879 -0.519427 42.190847 0.000001 0.000003 -0.000000 -7.032791 -10.820234 21.014622 0.127308 -0.194203 41.455953 0.000001 0.000000 0.000002 -19.451443 -20.295318 21.281923 0.281780 -0.136720 52.144857 -0.000000 -0.000000 0.000000 0.000000 0.000001 -0.000001 -0.000000 -0.000002 -0.000000 0.000002 -0.000000 -0.000001 -0.000000 -0.000002 -0.000000 -0.000000 -0.000002 -0.000000 -0.000000 -0.000002 -0.000000 0.000002 -0.000000 -0.000001 -0.000000 -0.000002 -0.000000 -0.000000 -0.000002 -0.000000 -0.000000 -0.000002 -0.000000 0.000002 -0.000000 -0.000001 -0.000000 -0.000003 0.000000 -0.000000 -0.000003 0.000000 -0.000000 -0.000003 0.000000 
